<svg id="visual" viewBox="0 0 900 600" width="900" height="600" xmlns="http://www.w3.org/2000/svg" xmlns:xlink="http://www.w3.org/1999/xlink" version="1.1"><rect x="0" y="0" width="900" height="600" fill="#00008b"></rect><path d="M773 600L768.5 592.8C764 585.7 755 571.3 757 557C759 542.7 772 528.3 758.8 514C745.7 499.7 706.3 485.3 698.2 471.2C690 457 713 443 720 428.8C727 414.7 718 400.3 724.3 386C730.7 371.7 752.3 357.3 760.3 343C768.3 328.7 762.7 314.3 742.7 300C722.7 285.7 688.3 271.3 670.7 257C653 242.7 652 228.3 669.8 214C687.7 199.7 724.3 185.3 745.3 171.2C766.3 157 771.7 143 764 128.8C756.3 114.7 735.7 100.3 722.7 86C709.7 71.7 704.3 57.3 703.7 43C703 28.7 707 14.3 709 7.2L711 0L900 0L900 7.2C900 14.3 900 28.7 900 43C900 57.3 900 71.7 900 86C900 100.3 900 114.7 900 128.8C900 143 900 157 900 171.2C900 185.3 900 199.7 900 214C900 228.3 900 242.7 900 257C900 271.3 900 285.7 900 300C900 314.3 900 328.7 900 343C900 357.3 900 371.7 900 386C900 400.3 900 414.7 900 428.8C900 443 900 457 900 471.2C900 485.3 900 499.7 900 514C900 528.3 900 542.7 900 557C900 571.3 900 585.7 900 592.8L900 600Z" fill="#9292e1" stroke-linecap="round" stroke-linejoin="miter"></path></svg>